<?xml version="1.0" encoding="UTF-8" standalone="no"?><svg xmlns="http://www.w3.org/2000/svg" xmlns:xlink="http://www.w3.org/1999/xlink" contentScriptType="application/ecmascript" contentStyleType="text/css" height="280px" preserveAspectRatio="none" style="width:411px;height:280px;" version="1.1" viewBox="0 0 411 280" width="411px" zoomAndPan="magnify"><defs><filter height="300%" id="fk919vx3p9eft" width="300%" x="-1" y="-1"><feGaussianBlur result="blurOut" stdDeviation="2.0"/><feColorMatrix in="blurOut" result="blurOut2" type="matrix" values="0 0 0 0 0 0 0 0 0 0 0 0 0 0 0 0 0 0 .4 0"/><feOffset dx="4.0" dy="4.0" in="blurOut2" result="blurOut3"/><feBlend in="SourceGraphic" in2="blurOut3" mode="normal"/></filter></defs><g><rect fill="#FFFFFF" filter="url(#fk919vx3p9eft)" height="67.2656" style="stroke: #A80036; stroke-width: 1.0;" width="10" x="139" y="117.4297"/><rect fill="#FFFFFF" filter="url(#fk919vx3p9eft)" height="9" style="stroke: #A80036; stroke-width: 1.0;" width="10" x="232" y="175.6953"/><rect fill="#FFFFFF" filter="url(#fk919vx3p9eft)" height="38.1328" style="stroke: #A80036; stroke-width: 1.0;" width="10" x="370" y="146.5625"/><line style="stroke: #A80036; stroke-width: 1.0; stroke-dasharray: 5.0,5.0;" x1="37" x2="37" y1="86.2969" y2="193.6953"/><line style="stroke: #A80036; stroke-width: 1.0; stroke-dasharray: 5.0,5.0;" x1="143.5" x2="143.5" y1="86.2969" y2="193.6953"/><line style="stroke: #A80036; stroke-width: 1.0; stroke-dasharray: 5.0,5.0;" x1="236.5" x2="236.5" y1="86.2969" y2="193.6953"/><line style="stroke: #A80036; stroke-width: 1.0; stroke-dasharray: 5.0,5.0;" x1="305.5" x2="305.5" y1="86.2969" y2="193.6953"/><line style="stroke: #A80036; stroke-width: 1.0; stroke-dasharray: 5.0,5.0;" x1="374.5" x2="374.5" y1="86.2969" y2="193.6953"/><text fill="#000000" font-family="sans-serif" font-size="14" lengthAdjust="spacingAndGlyphs" textLength="52" x="8" y="82.9951">Jugador</text><ellipse cx="37" cy="13" fill="#FFFF00" filter="url(#fk919vx3p9eft)" rx="8" ry="8" style="stroke: #0000FF; stroke-width: 2.0;"/><path d="M37,21 L37,48 M24,29 L50,29 M37,48 L24,63 M37,48 L50,63 " fill="none" filter="url(#fk919vx3p9eft)" style="stroke: #0000FF; stroke-width: 2.0;"/><text fill="#000000" font-family="sans-serif" font-size="14" lengthAdjust="spacingAndGlyphs" textLength="52" x="8" y="205.6904">Jugador</text><ellipse cx="37" cy="218.9922" fill="#FFFF00" filter="url(#fk919vx3p9eft)" rx="8" ry="8" style="stroke: #0000FF; stroke-width: 2.0;"/><path d="M37,226.9922 L37,253.9922 M24,234.9922 L50,234.9922 M37,253.9922 L24,268.9922 M37,253.9922 L50,268.9922 " fill="none" filter="url(#fk919vx3p9eft)" style="stroke: #0000FF; stroke-width: 2.0;"/><rect fill="#FEFECE" filter="url(#fk919vx3p9eft)" height="30.2969" style="stroke: #A80036; stroke-width: 1.5;" width="103" x="90.5" y="51"/><text fill="#000000" font-family="sans-serif" font-size="14" lengthAdjust="spacingAndGlyphs" textLength="89" x="97.5" y="70.9951">GameEngine</text><rect fill="#FEFECE" filter="url(#fk919vx3p9eft)" height="30.2969" style="stroke: #A80036; stroke-width: 1.5;" width="103" x="90.5" y="192.6953"/><text fill="#000000" font-family="sans-serif" font-size="14" lengthAdjust="spacingAndGlyphs" textLength="89" x="97.5" y="212.6904">GameEngine</text><rect fill="#FEFECE" filter="url(#fk919vx3p9eft)" height="30.2969" style="stroke: #A80036; stroke-width: 1.5;" width="55" x="207.5" y="51"/><text fill="#000000" font-family="sans-serif" font-size="14" lengthAdjust="spacingAndGlyphs" textLength="41" x="214.5" y="70.9951">Player</text><rect fill="#FEFECE" filter="url(#fk919vx3p9eft)" height="30.2969" style="stroke: #A80036; stroke-width: 1.5;" width="55" x="207.5" y="192.6953"/><text fill="#000000" font-family="sans-serif" font-size="14" lengthAdjust="spacingAndGlyphs" textLength="41" x="214.5" y="212.6904">Player</text><rect fill="#FEFECE" filter="url(#fk919vx3p9eft)" height="30.2969" style="stroke: #A80036; stroke-width: 1.5;" width="55" x="276.5" y="51"/><text fill="#000000" font-family="sans-serif" font-size="14" lengthAdjust="spacingAndGlyphs" textLength="41" x="283.5" y="70.9951">Game</text><rect fill="#FEFECE" filter="url(#fk919vx3p9eft)" height="30.2969" style="stroke: #A80036; stroke-width: 1.5;" width="55" x="276.5" y="192.6953"/><text fill="#000000" font-family="sans-serif" font-size="14" lengthAdjust="spacingAndGlyphs" textLength="41" x="283.5" y="212.6904">Game</text><rect fill="#FEFECE" filter="url(#fk919vx3p9eft)" height="30.2969" style="stroke: #A80036; stroke-width: 1.5;" width="55" x="345.5" y="51"/><text fill="#000000" font-family="sans-serif" font-size="14" lengthAdjust="spacingAndGlyphs" textLength="41" x="352.5" y="70.9951">Bomb</text><rect fill="#FEFECE" filter="url(#fk919vx3p9eft)" height="30.2969" style="stroke: #A80036; stroke-width: 1.5;" width="55" x="345.5" y="192.6953"/><text fill="#000000" font-family="sans-serif" font-size="14" lengthAdjust="spacingAndGlyphs" textLength="41" x="352.5" y="212.6904">Bomb</text><rect fill="#FFFFFF" filter="url(#fk919vx3p9eft)" height="67.2656" style="stroke: #A80036; stroke-width: 1.0;" width="10" x="139" y="117.4297"/><rect fill="#FFFFFF" filter="url(#fk919vx3p9eft)" height="9" style="stroke: #A80036; stroke-width: 1.0;" width="10" x="232" y="175.6953"/><rect fill="#FFFFFF" filter="url(#fk919vx3p9eft)" height="38.1328" style="stroke: #A80036; stroke-width: 1.0;" width="10" x="370" y="146.5625"/><polygon fill="#A80036" points="127,113.4297,137,117.4297,127,121.4297,131,117.4297" style="stroke: #A80036; stroke-width: 1.0;"/><line style="stroke: #A80036; stroke-width: 1.0;" x1="37" x2="133" y1="117.4297" y2="117.4297"/><text fill="#000000" font-family="sans-serif" font-size="13" lengthAdjust="spacingAndGlyphs" textLength="83" x="44" y="112.3638">keyPressed()</text><polygon fill="#A80036" points="358,142.5625,368,146.5625,358,150.5625,362,146.5625" style="stroke: #A80036; stroke-width: 1.0;"/><line style="stroke: #A80036; stroke-width: 1.0;" x1="149" x2="364" y1="146.5625" y2="146.5625"/><text fill="#000000" font-family="sans-serif" font-size="13" lengthAdjust="spacingAndGlyphs" textLength="89" x="156" y="141.4966">createBomb()</text><polygon fill="#A80036" points="253,171.6953,243,175.6953,253,179.6953,249,175.6953" style="stroke: #A80036; stroke-width: 1.0;"/><line style="stroke: #A80036; stroke-width: 1.0;" x1="247" x2="369" y1="175.6953" y2="175.6953"/><text fill="#000000" font-family="sans-serif" font-size="13" lengthAdjust="spacingAndGlyphs" textLength="82" x="259" y="170.6294">placeBomb()</text><!--
@startuml
skinparam ActorBorderColor Blue
skinparam ActorBackgroundColor Yellow

actor Jugador
participant GameEngine
participant Player

participant Game
participant Bomb
Jugador -> GameEngine : keyPressed()
activate GameEngine

GameEngine -> Bomb : createBomb()
activate Bomb
Bomb -> Player : placeBomb()
activate Player
@enduml

PlantUML version 1.2019.04(Fri Mar 29 15:44:36 UTC 2019)
(GPL source distribution)
Java Runtime: OpenJDK Runtime Environment
JVM: OpenJDK 64-Bit Server VM
Java Version: 1.8.0_201-heroku-b09
Operating System: Linux
OS Version: 4.4.0-1048-aws
Default Encoding: UTF-8
Language: en
Country: US
--></g></svg>